<?xml version="1.0" encoding="UTF-8"?>
<svg enable-background="new 0 0 103.94 35" version="1.1" viewBox="0 0 103.94 35" xml:space="preserve" xmlns="http://www.w3.org/2000/svg">
<style type="text/css">
	.st0{fill:#414042;}
	.st1{fill:#EE2B37;}
</style>
  <path class="st0" d="m48.49 32.81c-0.19 0.22-0.48 0.36-0.91 0.36-0.08 0-0.16 0-0.24-0.01l-0.22 1.03h-0.47l0.52-2.5c0.19-0.09 0.44-0.15 0.75-0.15 0.56 0 0.8 0.26 0.8 0.63 0 0.22-0.09 0.46-0.23 0.64zm-0.62-0.99c-0.1 0-0.21 0.03-0.26 0.05l-0.21 1.01c0.06 0.01 0.12 0.01 0.19 0.01 0.27 0 0.45-0.09 0.55-0.26 0.08-0.13 0.13-0.31 0.13-0.47-0.01-0.22-0.12-0.34-0.4-0.34z"/>
  <path class="st0" d="m50.7 32.45c-0.17-0.05-0.33-0.05-0.43 0l-0.36 1.73h-0.46l0.4-1.93c0.19-0.09 0.47-0.15 0.82-0.15 0.08 0 0.13 0 0.2 0.01l-0.17 0.34z"/>
  <path class="st0" d="m53.04 33.77c-0.18 0.28-0.45 0.45-0.82 0.45-0.46 0-0.69-0.3-0.69-0.72 0-0.31 0.11-0.69 0.28-0.95 0.18-0.28 0.46-0.45 0.82-0.45 0.46 0 0.68 0.29 0.68 0.72 0 0.31-0.11 0.7-0.27 0.95zm-0.44-1.37c-0.2 0-0.33 0.14-0.43 0.34-0.1 0.21-0.19 0.58-0.19 0.81 0 0.21 0.07 0.36 0.28 0.36 0.2 0 0.33-0.14 0.43-0.33 0.1-0.21 0.18-0.59 0.18-0.82 0-0.21-0.07-0.36-0.27-0.36z"/>
  <path class="st0" d="m55.5 32.43h-0.33l-0.25 1.2c-0.01 0.03-0.01 0.07-0.01 0.1 0 0.1 0.05 0.17 0.17 0.17 0.04 0 0.09-0.01 0.12-0.02l-0.06 0.29c-0.05 0.02-0.15 0.05-0.25 0.05-0.32 0-0.45-0.19-0.45-0.42 0-0.05 0-0.1 0.01-0.15l0.25-1.21h-0.23l0.06-0.29h0.23l0.09-0.45 0.49-0.13-0.12 0.58h0.33l-0.05 0.28z"/>
  <path class="st0" d="m58.08 33.15l-1.28 0.18c-0.03 0.31 0.06 0.57 0.43 0.57 0.22 0 0.43-0.07 0.54-0.13l0.05 0.3c-0.16 0.08-0.4 0.15-0.69 0.15-0.48 0-0.78-0.26-0.78-0.76 0-0.3 0.11-0.66 0.28-0.91 0.2-0.28 0.49-0.45 0.83-0.45 0.42 0 0.67 0.24 0.67 0.69 0 0.11-0.02 0.23-0.05 0.36zm-0.67-0.77c-0.19 0-0.36 0.12-0.47 0.34-0.05 0.1-0.1 0.23-0.13 0.38l0.88-0.13c0.02-0.08 0.03-0.16 0.03-0.23 0-0.24-0.11-0.36-0.31-0.36z"/>
  <path class="st0" d="m59.3 34.96c-0.15 0-0.25-0.01-0.34-0.02l0.12-0.15c0.05 0 0.12 0.01 0.2 0.01 0.3 0 0.44-0.06 0.44-0.16 0-0.06-0.07-0.09-0.25-0.09-0.07 0-0.14 0-0.2 0.01l0.11-0.14c0.06 0 0.13-0.01 0.21-0.01 0.31 0 0.44 0.08 0.44 0.21 0.01 0.19-0.23 0.34-0.73 0.34zm1.21-2.46c-0.04-0.03-0.13-0.08-0.24-0.08-0.19 0-0.35 0.11-0.46 0.3s-0.19 0.5-0.19 0.72c0 0.28 0.11 0.44 0.31 0.44 0.12 0 0.24-0.04 0.31-0.09l0.05 0.29c-0.09 0.08-0.28 0.15-0.49 0.15-0.39 0-0.64-0.31-0.64-0.77 0-0.3 0.11-0.67 0.28-0.91 0.2-0.29 0.48-0.43 0.77-0.43 0.22 0 0.4 0.08 0.47 0.15l-0.17 0.23z"/>
  <path class="st0" d="m62.94 34.08c-0.16 0.08-0.4 0.15-0.72 0.15-0.51 0-0.79-0.29-0.79-0.75 0-0.32 0.12-0.71 0.33-0.96 0.21-0.26 0.51-0.41 0.91-0.41 0.27 0 0.52 0.07 0.65 0.15l-0.38 1.82zm-0.34-1.7c-0.21 0-0.38 0.11-0.51 0.33-0.12 0.21-0.2 0.53-0.2 0.78 0 0.28 0.11 0.45 0.38 0.45 0.11 0 0.2-0.02 0.25-0.05l0.3-1.46c-0.03-0.03-0.1-0.05-0.22-0.05zm0.33-0.49c-0.2 0-0.27-0.15-0.45-0.15-0.12 0-0.2 0.08-0.26 0.17l-0.1-0.2c0.08-0.13 0.19-0.22 0.36-0.22 0.19 0 0.27 0.16 0.43 0.16 0.11 0 0.2-0.07 0.26-0.16l0.1 0.2c-0.06 0.11-0.19 0.2-0.34 0.2z"/>
  <path class="st0" d="m65.81 33.77c-0.18 0.28-0.45 0.45-0.82 0.45-0.46 0-0.69-0.3-0.69-0.72 0-0.31 0.11-0.69 0.27-0.95 0.19-0.28 0.46-0.45 0.82-0.45 0.46 0 0.68 0.29 0.68 0.72 0.01 0.31-0.1 0.7-0.26 0.95zm-0.45-1.37c-0.2 0-0.33 0.14-0.43 0.34-0.1 0.21-0.19 0.58-0.19 0.81 0 0.21 0.07 0.36 0.28 0.36 0.2 0 0.33-0.14 0.42-0.33 0.1-0.21 0.18-0.59 0.18-0.82 0.01-0.21-0.05-0.36-0.26-0.36z"/>
  <path class="st0" d="m70.7 32.74c-0.17 0.18-0.4 0.28-0.64 0.29v0.01l0.54 1.14h-0.52l-0.5-1.19h-0.01l-0.25 1.19h-0.47l0.52-2.5c0.2-0.09 0.45-0.15 0.74-0.15 0.55 0 0.83 0.24 0.83 0.62 0 0.22-0.09 0.44-0.24 0.59zm-0.64-0.92c-0.11 0-0.18 0.01-0.25 0.05l-0.21 1.01c0.03 0.01 0.1 0.02 0.18 0.02 0.22 0 0.4-0.07 0.52-0.21 0.12-0.13 0.18-0.34 0.18-0.51-0.01-0.25-0.15-0.36-0.42-0.36z"/>
  <path class="st0" d="m73.54 33.15l-1.28 0.18c-0.03 0.31 0.06 0.57 0.43 0.57 0.22 0 0.43-0.07 0.54-0.13l0.05 0.3c-0.15 0.08-0.4 0.15-0.69 0.15-0.48 0-0.78-0.26-0.78-0.76 0-0.3 0.11-0.66 0.28-0.91 0.2-0.28 0.49-0.45 0.83-0.45 0.42 0 0.67 0.24 0.67 0.69 0 0.11-0.01 0.23-0.05 0.36zm-0.67-0.77c-0.19 0-0.36 0.12-0.47 0.34-0.05 0.1-0.1 0.23-0.13 0.38l0.88-0.13c0.02-0.08 0.02-0.16 0.02-0.23 0.01-0.24-0.1-0.36-0.3-0.36z"/>
  <path class="st0" d="m75.85 32.5c-0.06-0.05-0.18-0.09-0.31-0.09-0.2 0-0.36 0.15-0.36 0.33 0 0.33 0.62 0.25 0.62 0.74 0 0.39-0.31 0.75-0.87 0.75-0.22 0-0.43-0.06-0.54-0.15l0.17-0.29c0.06 0.05 0.2 0.11 0.36 0.11 0.23 0 0.39-0.18 0.39-0.37 0-0.33-0.59-0.25-0.59-0.73 0-0.34 0.29-0.69 0.77-0.69 0.22 0 0.38 0.06 0.5 0.15l-0.14 0.24z"/>
  <path class="st0" d="m78.46 33.77c-0.2 0.29-0.5 0.45-0.85 0.45-0.12 0-0.24-0.02-0.3-0.05l-0.18 0.83h-0.46l0.57-2.75c0.18-0.09 0.43-0.15 0.72-0.15 0.5 0 0.79 0.27 0.79 0.74 0.01 0.31-0.11 0.68-0.29 0.93zm-0.54-1.39c-0.1 0-0.18 0.02-0.25 0.05l-0.31 1.48c0.04 0.02 0.11 0.03 0.19 0.03 0.24 0 0.42-0.12 0.55-0.36 0.11-0.21 0.19-0.54 0.19-0.77 0.01-0.28-0.1-0.43-0.37-0.43z"/>
  <path class="st0" d="m80.18 34.19h-0.46l0.43-2.04h0.46l-0.43 2.04zm0.26-2.39c-0.13 0-0.21-0.08-0.21-0.19 0-0.14 0.15-0.28 0.31-0.28 0.12 0 0.21 0.09 0.21 0.19 0 0.14-0.15 0.28-0.31 0.28z"/>
  <path class="st0" d="m82.73 32.45c-0.17-0.05-0.33-0.05-0.43 0l-0.35 1.73h-0.46l0.4-1.93c0.19-0.09 0.47-0.15 0.82-0.15 0.08 0 0.13 0 0.2 0.01l-0.18 0.34z"/>
  <path class="st0" d="m85.06 34.08c-0.16 0.08-0.4 0.15-0.72 0.15-0.51 0-0.79-0.29-0.79-0.75 0-0.32 0.13-0.71 0.33-0.96 0.21-0.26 0.51-0.41 0.91-0.41 0.27 0 0.52 0.07 0.65 0.15l-0.38 1.82zm-0.34-1.7c-0.21 0-0.38 0.11-0.51 0.33-0.12 0.21-0.2 0.53-0.2 0.78 0 0.28 0.11 0.45 0.38 0.45 0.11 0 0.2-0.02 0.25-0.05l0.3-1.46c-0.03-0.03-0.1-0.05-0.22-0.05z"/>
  <path class="st0" d="m87.57 32.43h-0.33l-0.25 1.2c-0.01 0.03-0.01 0.07-0.01 0.1 0 0.1 0.05 0.17 0.17 0.17 0.04 0 0.09-0.01 0.12-0.02l-0.06 0.29c-0.04 0.02-0.14 0.05-0.24 0.05-0.33 0-0.45-0.19-0.45-0.42 0-0.05 0-0.1 0.01-0.15l0.25-1.21h-0.23l0.06-0.29h0.23l0.09-0.45 0.49-0.13-0.12 0.58h0.33l-0.06 0.28z"/>
  <path class="st0" d="m89.93 33.77c-0.18 0.28-0.45 0.45-0.82 0.45-0.46 0-0.69-0.3-0.69-0.72 0-0.31 0.11-0.69 0.27-0.95 0.19-0.28 0.46-0.45 0.82-0.45 0.46 0 0.68 0.29 0.68 0.72 0.01 0.31-0.1 0.7-0.26 0.95zm-0.44-1.37c-0.2 0-0.33 0.14-0.43 0.34-0.1 0.21-0.19 0.58-0.19 0.81 0 0.21 0.07 0.36 0.28 0.36 0.2 0 0.33-0.14 0.43-0.33 0.1-0.21 0.18-0.59 0.18-0.82 0-0.21-0.06-0.36-0.27-0.36zm0.15-0.47h-0.27l0.37-0.54c0.08-0.05 0.19-0.07 0.29-0.07s0.17 0.03 0.19 0.08l-0.58 0.53z"/>
  <path class="st0" d="m92.42 32.45c-0.17-0.05-0.33-0.05-0.43 0l-0.36 1.73h-0.46l0.4-1.93c0.19-0.09 0.47-0.15 0.82-0.15 0.08 0 0.13 0 0.2 0.01l-0.17 0.34z"/>
  <path class="st0" d="m93.69 34.19h-0.46l0.43-2.04h0.46l-0.43 2.04zm0.26-2.39c-0.12 0-0.21-0.08-0.21-0.19 0-0.14 0.15-0.28 0.31-0.28 0.12 0 0.21 0.09 0.21 0.19 0 0.14-0.15 0.28-0.31 0.28z"/>
  <path class="st0" d="m96.58 34.08c-0.16 0.08-0.4 0.15-0.72 0.15-0.51 0-0.79-0.29-0.79-0.75 0-0.32 0.13-0.71 0.33-0.96 0.21-0.26 0.51-0.41 0.91-0.41 0.27 0 0.52 0.07 0.65 0.15l-0.38 1.82zm-0.34-1.7c-0.21 0-0.38 0.11-0.51 0.33-0.12 0.21-0.2 0.53-0.2 0.78 0 0.28 0.11 0.45 0.38 0.45 0.11 0 0.2-0.02 0.26-0.05l0.3-1.46c-0.05-0.03-0.12-0.05-0.23-0.05z"/>
  <path class="st0" d="m8.08 34.19h2.97v-2.65h-2.97v2.65zm-2.96 0h1.48v-2.65h-1.48v2.65zm7.41 0h4.45v-2.65h-4.45v2.65zm13.34 0h7.41v-2.65h-7.41v2.65zm8.9-2.65v2.65h8.9v-2.65h-8.9zm-16.31 2.65h5.93v-2.65h-5.93v2.65z"/>
  <path class="st1" d="m90.53 27.18c-5.66 0-9.16-3.66-9.38-9.8-0.15-4.32 1.35-9.35 3.73-12.51 2.4-3.17 5.68-4.78 9.74-4.78 3.42 0 5.95 1.17 7.53 3.48 1.35 1.98 1.71 4.4 1.76 6.08 0.16 4.41-1.31 9.65-3.57 12.74-2.31 3.18-5.61 4.79-9.81 4.79zm3.41-20.85c-1.2 0-2.74 1.51-3.35 3.63-0.56 2.03-1.47 6.6-1.39 8.82 0.05 1.28 1.17 1.98 2.03 1.98 1.19 0 2.71-1.54 3.31-3.7 0.54-2.01 1.43-6.53 1.35-8.78-0.05-1.26-1.13-1.95-1.95-1.95zm-19.96 20.84c-1.34 0-2.61-0.2-3.76-0.6-4.48-1.56-6.74-4.73-7.1-9.97-0.36-5.15 1.57-10.46 4.93-13.53 2.18-2 5-3.06 8.16-3.06 2.35 0 4.7 0.85 5.99 1.68 0.2 0.13 0.26 0.38 0.15 0.58l-2.61 4.69c-0.07 0.13-0.21 0.21-0.36 0.21-0.05 0-0.1-0.01-0.15-0.03-0.41-0.15-1.08-0.32-1.9-0.32-0.13 0-0.26 0-0.4 0.01-0.76 0.05-2.68 0.39-3.94 2.36-1.3 2.03-2.1 5.36-1.85 7.74 0.18 1.72 1.63 2.97 2.92 3.18 0.36 0.06 0.74 0.09 1.14 0.09 1 0 1.84-0.18 2.37-0.34 0.04-0.01 0.08-0.02 0.12-0.02 0.17 0 0.34 0.11 0.41 0.28l2.1 5.17c0.08 0.2 0 0.43-0.19 0.53-1.26 0.65-3.51 1.35-6.03 1.35zm-28.16-0.37c-0.13 0-0.25-0.06-0.34-0.16-0.08-0.1-0.12-0.23-0.1-0.36l1.49-8.57-3.98-16.91c-0.03-0.13 0-0.26 0.07-0.36 0.08-0.1 0.2-0.16 0.33-0.16h7.62c0.22 0 0.41 0.16 0.44 0.38l1.43 7.34h0.08l4.21-7.5c0.07-0.13 0.21-0.21 0.36-0.21h7.28c0.15 0 0.3 0.08 0.38 0.22s0.08 0.3 0 0.43l-9.87 16.76-1.48 8.75c-0.03 0.2-0.2 0.34-0.41 0.34h-7.51zm-12.9 0c-0.24 0-0.43-0.19-0.44-0.42l-0.14-3.21-7.49-0.01-1.41 3.38c-0.06 0.15-0.21 0.25-0.38 0.25h-6.86c-0.15 0-0.29-0.08-0.37-0.2-0.08-0.13-0.09-0.29-0.03-0.42l12.29-25.47c0.07-0.14 0.21-0.23 0.37-0.23h8.35c0.22 0 0.41 0.17 0.44 0.38l3.52 25.47c0.02 0.12-0.02 0.24-0.1 0.33s-0.19 0.14-0.31 0.14h-7.44zm-1.48-19.18c-0.01 0.03-4.39 10.29-4.39 10.29h5.03s-0.57-10.26-0.57-10.29h-0.07zm-28.48 19.18c-0.13 0-0.25-0.06-0.34-0.16s-0.12-0.23-0.1-0.36l3.2-18.58h-5.28c-0.13 0-0.25-0.06-0.34-0.16s-0.12-0.23-0.1-0.36l1.1-6.37c0.03-0.2 0.2-0.34 0.4-0.34h19.16c0.13 0 0.25 0.06 0.34 0.16 0.08 0.1 0.12 0.23 0.1 0.36l-1.09 6.38c-0.04 0.2-0.2 0.34-0.41 0.34h-5.49l-3.21 18.75c-0.04 0.2-0.2 0.34-0.41 0.34h-7.53z"/>
</svg>
